<?xml version="1.0" encoding="UTF-8" standalone="no"?>
<svg width="12px" height="12px" viewBox="0 0 12 12" version="1.1" xmlns="http://www.w3.org/2000/svg" xmlns:xlink="http://www.w3.org/1999/xlink">
    <!-- Generator: Sketch 48.2 (47327) - http://www.bohemiancoding.com/sketch -->
    <title>calendar-icon</title>
    <desc>Created with Sketch.</desc>
    <defs></defs>
    <g id="02_opendata04_sdg_national_reporting_project_news_and_updates_design_01" stroke="none" stroke-width="1" fill="none" fill-rule="evenodd" transform="translate(-871.000000, -1517.000000)" fill-opacity="0.65">
        <path d="M873.5,1517.5 L874.5,1517.5 L874.5,1518 L879.5,1518 L879.5,1517.5 L880.5,1517.5 L880.5,1518 L882.5,1518 L882.5,1529 L871.5,1529 L871.5,1518 L873.5,1518 L873.5,1517.5 Z M872.5,1519 L872.5,1520 L881.5,1520 L881.5,1519 L880.5,1519 L880.5,1519.5 L879.5,1519.5 L879.5,1519 L874.5,1519 L874.5,1519.5 L873.5,1519.5 L873.5,1519 L872.5,1519 Z M872.5,1521 L872.5,1528 L881.5,1528 L881.5,1521 L872.5,1521 Z M879.125,1522.125 L879.875,1522.875 L876.875,1525.875 L876.5,1526.1875 L876.125,1525.875 L874.625,1524.375 L875.375,1523.625 L876.5,1524.78125 L879.125,1522.125 Z" id="calendar-icon" fill="#000000"></path>
    </g>
</svg>