<?xml version="1.0" encoding="UTF-8" standalone="no"?>
<svg width="20px" height="20px" viewBox="0 0 20 20" version="1.1" xmlns="http://www.w3.org/2000/svg" xmlns:xlink="http://www.w3.org/1999/xlink">
    <!-- Generator: Sketch 48.2 (47327) - http://www.bohemiancoding.com/sketch -->
    <title>checked-checkbox</title>
    <desc>Created with Sketch.</desc>
    <defs></defs>
    <g id="Buttons-/-Checkbox-(Selected)" stroke="none" stroke-width="1" fill="none" fill-rule="evenodd">
        <g id="checked-checkbox">
            <rect id="Rectangle-18" fill="#34A8FC" x="0" y="0" width="20" height="20"></rect>
            <path d="M16.9196429,7.33928571 C16.9196429,7.57738214 16.8363104,7.77976107 16.6696429,7.94642857 L8.99107143,15.625 C8.82440393,15.7916675 8.622025,15.875 8.38392857,15.875 C8.14583214,15.875 7.94345321,15.7916675 7.77678571,15.625 L3.33035714,11.1785714 C3.16368964,11.0119039 3.08035714,10.809525 3.08035714,10.5714286 C3.08035714,10.3333321 3.16368964,10.1309532 3.33035714,9.96428571 L4.54464286,8.75 C4.71131036,8.5833325 4.91368929,8.5 5.15178571,8.5 C5.38988214,8.5 5.59226107,8.5833325 5.75892857,8.75 L8.38392857,11.3839286 L14.2410714,5.51785714 C14.4077389,5.35118964 14.6101179,5.26785714 14.8482143,5.26785714 C15.0863107,5.26785714 15.2886896,5.35118964 15.4553571,5.51785714 L16.6696429,6.73214286 C16.8363104,6.89881036 16.9196429,7.10118929 16.9196429,7.33928571 Z" id="" fill="#FFFFFF"></path>
        </g>
    </g>
</svg>