<!-- Generated by IcoMoon.io -->
<svg version="1.1" xmlns="http://www.w3.org/2000/svg" width="32" height="32" viewBox="0 0 32 32">
<title>check-icon</title>
<path fill="#fff" d="M30.461 10.090c0 0.503-0.174 0.93-0.522 1.282l-16.047 16.212c-0.348 0.352-0.771 0.528-1.269 0.528s-0.921-0.176-1.269-0.528l-9.293-9.388c-0.348-0.352-0.522-0.779-0.522-1.282s0.174-0.93 0.522-1.282l2.538-2.564c0.348-0.352 0.771-0.528 1.269-0.528s0.921 0.176 1.269 0.528l5.486 5.561 12.241-12.385c0.348-0.352 0.771-0.528 1.269-0.528s0.921 0.176 1.269 0.528l2.538 2.564c0.348 0.352 0.522 0.779 0.522 1.282z"></path>
</svg>
