<?xml version="1.0" encoding="UTF-8" standalone="no"?>
<svg width="12px" height="7px" viewBox="0 0 12 7" version="1.1" xmlns="http://www.w3.org/2000/svg" xmlns:xlink="http://www.w3.org/1999/xlink">
    <!-- Generator: Sketch 48.2 (47327) - http://www.bohemiancoding.com/sketch -->
    <title>dropdown</title>
    <desc>Created with Sketch.</desc>
    <defs></defs>
    <g id="Symbols" stroke="none" stroke-width="1" fill="none" fill-rule="evenodd">
        <path d="M11.1227679,0.997209821 C11.1227679,1.0939365 11.0855658,1.17950112 11.0111607,1.25390625 L5.81026786,6.45479911 C5.73586272,6.52920424 5.6502981,6.56640625 5.55357143,6.56640625 C5.45684475,6.56640625 5.37128013,6.52920424 5.296875,6.45479911 L0.0959821429,1.25390625 C0.0215770089,1.17950112 -0.015625,1.0939365 -0.015625,0.997209821 C-0.015625,0.900483147 0.0215770089,0.814918527 0.0959821429,0.740513393 L0.654017857,0.182477679 C0.728422991,0.108072545 0.813987612,0.0708705357 0.910714286,0.0708705357 C1.00744096,0.0708705357 1.09300558,0.108072545 1.16741071,0.182477679 L5.55357143,4.56863839 L9.93973214,0.182477679 C10.0141373,0.108072545 10.0997019,0.0708705357 10.1964286,0.0708705357 C10.2931552,0.0708705357 10.3787199,0.108072545 10.453125,0.182477679 L11.0111607,0.740513393 C11.0855658,0.814918527 11.1227679,0.900483147 11.1227679,0.997209821 Z" id="dropdown" fill="#34A8FC"></path>
    </g>
</svg>