<!-- Generated by IcoMoon.io -->
<svg version="1.1" xmlns="http://www.w3.org/2000/svg" width="32" height="32" viewBox="0 0 32 32">
<title>dropdown-icon</title>
<path fill="#34a8fc" d="M29.661 9.326c0 0.258-0.099 0.486-0.298 0.685l-13.869 13.869c-0.198 0.198-0.427 0.298-0.685 0.298s-0.486-0.099-0.685-0.298l-13.869-13.869c-0.198-0.198-0.298-0.427-0.298-0.685s0.099-0.486 0.298-0.685l1.488-1.488c0.198-0.198 0.427-0.298 0.685-0.298s0.486 0.099 0.685 0.298l11.696 11.696 11.696-11.696c0.198-0.198 0.427-0.298 0.685-0.298s0.486 0.099 0.685 0.298l1.488 1.488c0.198 0.198 0.298 0.427 0.298 0.685z"></path>
</svg>
