<!-- Generated by IcoMoon.io -->
<svg version="1.1" xmlns="http://www.w3.org/2000/svg" width="32" height="32" viewBox="0 0 32 32">
<title>explore-topics-mobile-icon</title>
<path fill="#34a8fc" d="M16 0.85c4.095 0 7.595 1.452 10.5 4.357s4.357 6.405 4.357 10.5c0 4.095-1.452 7.595-4.357 10.5s-6.405 4.357-10.5 4.357c-4.095 0-7.595-1.452-10.5-4.357s-4.357-6.405-4.357-10.5c0-4.095 1.452-7.595 4.357-10.5s6.405-4.357 10.5-4.357zM16 3.136c-3.476 0-6.44 1.226-8.893 3.679s-3.679 5.417-3.679 8.893c0 3.476 1.226 6.44 3.679 8.893s5.417 3.679 8.893 3.679c3.476 0 6.44-1.226 8.893-3.679s3.679-5.417 3.679-8.893c0-3.476-1.226-6.44-3.679-8.893s-5.417-3.679-8.893-3.679zM14.857 8.85h2.286v2.286h-2.286v-2.286zM14.857 13.422h2.286v9.143h-2.286v-9.143z"></path>
</svg>
