<?xml version="1.0" encoding="UTF-8" standalone="no"?>
<svg width="16px" height="16px" viewBox="0 0 20 21" version="1.1" xmlns="http://www.w3.org/2000/svg" xmlns:xlink="http://www.w3.org/1999/xlink">
    <!-- Generator: Sketch 48.2 (47327) - http://www.bohemiancoding.com/sketch -->
    <title>explore-topics-mobile-icon</title>
    <desc>Created with Sketch.</desc>
    <defs></defs>
    <g id="02_mobile-tab-bar_01" stroke="none" stroke-width="1" fill="none" fill-rule="evenodd" transform="translate(-30.000000, -8.000000)">
        <g id="tab" fill="#34A8FC">
            <path d="M40,8.55812454 C42.6875134,8.55812454 44.9843655,9.51124001 46.890625,11.4174995 C48.7968845,13.3237591 49.75,15.6206111 49.75,18.3081245 C49.75,20.995638 48.7968845,23.29249 46.890625,25.1987495 C44.9843655,27.1050091 42.6875134,28.0581245 40,28.0581245 C37.3124866,28.0581245 35.0156345,27.1050091 33.109375,25.1987495 C31.2031155,23.29249 30.25,20.995638 30.25,18.3081245 C30.25,15.6206111 31.2031155,13.3237591 33.109375,11.4174995 C35.0156345,9.51124001 37.3124866,8.55812454 40,8.55812454 Z M40,10.0581245 C37.7187386,10.0581245 35.7734455,10.862804 34.1640625,12.472187 C32.5546795,14.0815701 31.75,16.0268631 31.75,18.3081245 C31.75,20.5893859 32.5546795,22.534679 34.1640625,24.144062 C35.7734455,25.7534451 37.7187386,26.5581245 40,26.5581245 C42.2812614,26.5581245 44.2265545,25.7534451 45.8359375,24.144062 C47.4453205,22.534679 48.25,20.5893859 48.25,18.3081245 C48.25,16.0268631 47.4453205,14.0815701 45.8359375,12.472187 C44.2265545,10.862804 42.2812614,10.0581245 40,10.0581245 Z M39.25,13.8081245 L40.75,13.8081245 L40.75,15.3081245 L39.25,15.3081245 L39.25,13.8081245 Z M39.25,16.8081245 L40.75,16.8081245 L40.75,22.8081245 L39.25,22.8081245 L39.25,16.8081245 Z" id="explore-topics-mobile-icon"></path>
        </g>
    </g>
</svg>