<?xml version="1.0" encoding="UTF-8" standalone="no"?>
<svg width="160px" height="62px" viewBox="0 0 160 62" version="1.1" xmlns="http://www.w3.org/2000/svg" xmlns:xlink="http://www.w3.org/1999/xlink">
    <!-- Generator: Sketch 48.2 (47327) - http://www.bohemiancoding.com/sketch -->
    <title>hewlett_foundation_logo</title>
    <desc>Created with Sketch.</desc>
    <defs>
        <polygon id="path-1" points="0 62 159.980481 62 159.980481 0.202460177 0 0.202460177"></polygon>
    </defs>
    <g id="Footer" stroke="none" stroke-width="1" fill="none" fill-rule="evenodd" transform="translate(-920.000000, -66.000000)">
        <g transform="translate(0.000000, 0.687500)" id="opendata_enterprise_and_hewlett_foundation_logos">
            <g transform="translate(686.000000, 36.000000)">
                <g id="hewlett_foundation_logo" transform="translate(234.000000, 30.000000)">
                    <path d="M21,30 L21,61 L22.8557115,61 L22.8557115,36.3099812 L25.6714158,36.3099812 L25.6672956,44.7986107 L44,44.7986107 L44,43.004711 L27.5315221,43.0086939 L27.5364662,36.3099812 L44,36.3099812 L44,34.5160815 L27.5364662,34.5160815 L27.5359169,31.7938997 L44,31.7938997 L44,30 L21,30 Z M22.8557115,34.5168781 L25.6802054,34.5168781 L25.6802054,31.7938997 L22.8557115,31.7938997 L22.8557115,34.5168781 Z" id="Fill-1" fill="#FFFFFF"></path>
                    <polygon id="Fill-2" fill="#FFFFFF" points="26 48 26 61 27.8233177 61 27.8233177 49.730823 44 49.730823 44 48"></polygon>
                    <path d="M21.3887847,0 L21.3887847,14.8197132 L6.54925426,14.8197132 L6.54925426,0 L4.67208478,0 L4.67208478,16.6515338 L21.3887847,16.6520761 L21.3848948,19.4248911 L4.70987268,19.4248911 L4.71348476,34 L6.59093209,34 L6.59093209,21.2553558 L21.3887847,21.2553558 L21.3887847,29.4303466 L23.2659542,29.4303466 L23.2659542,21.2553558 L26.1228305,21.2553558 L26.1228305,29.4265501 L28,29.4265501 L28,0.0173555169 L26.1228305,0.0173555169 L26.1228305,14.8197132 L23.2659542,14.8197132 L23.2659542,0 L21.3887847,0 Z M23.2659542,16.6520761 L26.1228305,16.6520761 L26.1189406,19.4248911 L23.2623421,19.4248911 L23.2659542,16.6520761 Z M0,34 L1.87716948,34 L1.87716948,0.0116607379 L0,0.0116607379 L0,34 Z" id="Fill-3" fill="#FFFFFF"></path>
                    <polygon id="Fill-4" fill="#FFFFFF" points="55.0001525 7.61617869 55.7804543 10 56.5869797 10 58 6 57.026376 6 56.1826498 8.56709931 55.3559994 6 54.6507089 6 53.8130813 8.58376094 52.9873456 6 52 6 53.4133252 10 54.2198506 10"></polygon>
                    <polygon id="Fill-5" fill="#FFFFFF" points="59 10 60 10 60 6 59 6"></polygon>
                    <polygon id="Fill-6" fill="#FFFFFF" points="65 9.29469999 63.7253874 9.29469999 63.7253874 6 63 6 63 10 65 10"></polygon>
                    <polygon id="Fill-7" fill="#FFFFFF" points="70 9.29469999 68.7251544 9.29469999 68.7251544 6 68 6 68 10 70 10"></polygon>
                    <polygon id="Fill-8" fill="#FFFFFF" points="72 10 73 10 73 6 72 6"></polygon>
                    <path d="M75.6140997,8.17409151 L76.0026305,7.11288181 L76.3864264,8.17409151 L75.6140997,8.17409151 Z M75.3268447,8.87963298 L76.6681573,8.87963298 L77.1274497,10 L78,10 L76.3716954,6.06350356 L76.3459161,6 L75.65461,6 L74,10 L74.8678153,10 L75.3268447,8.87963298 Z" id="Fill-9" fill="#FFFFFF"></path>
                    <polygon id="Fill-10" fill="#FFFFFF" points="81.7103806 7.17355871 82.7793757 10 83.2208526 10 84.2896194 7.1629339 84.2896194 10 85 10 85 6 84.0179764 6 82.9978314 8.74361606 81.9824802 6 81 6 81 10 81.7103806 10"></polygon>
                    <polygon id="Fill-11" fill="#FFFFFF" points="98.7095965 8.35518532 100 8.35518532 100 7.64988531 98.7095965 7.64988531 98.7095965 6.70530001 100 6.70530001 100 6 98 6 98 10 98.7095965 10"></polygon>
                    <polygon id="Fill-12" fill="#FFFFFF" points="104 9.29469999 102.725239 9.29469999 102.725239 6 102 6 102 10 104 10"></polygon>
                    <g id="Group-41">
                        <path d="M109.427766,5.73247611 C108.386942,5.73247611 107.918763,6.6405292 107.918763,7.28521947 C107.918763,7.92990973 108.386942,8.8376885 109.427766,8.8376885 C110.468591,8.8376885 110.93677,7.94033451 110.93677,7.30277699 C110.93677,6.65067965 110.468591,5.73247611 109.427766,5.73247611 Z M109.427766,9.63902478 C108.123849,9.63902478 107.062955,8.58337876 107.062955,7.28521947 C107.062955,5.98733451 108.123849,4.93113982 109.427766,4.93113982 C110.753952,4.93113982 111.792852,5.97005133 111.792852,7.29674159 C111.792852,8.58831681 110.731684,9.63902478 109.427766,9.63902478 Z" id="Fill-13" fill="#FFFFFF"></path>
                        <path d="M114.784825,5.81417345 L115.339876,5.81417345 C115.964756,5.81417345 116.187711,6.17300531 116.187711,6.50851858 C116.187711,6.9962885 115.82345,7.24346549 115.105649,7.24346549 L114.784825,7.24346549 L114.784825,5.81417345 Z M114.784825,7.77622655 L116.054653,9.55749204 L117.125993,9.55749204 L115.899876,7.92519115 C116.342488,7.84535929 117.043244,7.50765133 117.043244,6.50851858 C117.043244,6.07671327 116.881595,5.66466018 116.610804,5.40568673 C116.324069,5.13409381 115.944687,5.01283717 115.381113,5.01283717 L113.929017,5.01283717 L113.929017,9.55749204 L114.784825,9.55749204 L114.784825,7.77622655 Z" id="Fill-15" fill="#FFFFFF"></path>
                        <path d="M120.961787,7.48296106 L121.367835,6.2772531 L121.76921,7.48296106 L120.961787,7.48296106 Z M120.661581,8.28457168 L122.063643,8.28457168 L122.543368,9.55749204 L123.455258,9.55749204 L121.753814,5.08498761 L121.726598,5.01283717 L121.004124,5.01283717 L119.274914,9.55749204 L120.181856,9.55749204 L120.661581,8.28457168 Z" id="Fill-17" fill="#FFFFFF"></path>
                        <polygon id="Fill-19" fill="#FFFFFF" points="54.9492509 15.1191115 53.2183918 15.1191115 53.2183918 30.108846 54.9492509 30.108846 54.9492509 23.3305451 62.526433 23.3305451 62.526433 30.108846 64.257567 30.108846 64.257567 15.1191115 62.526433 15.1191115 62.526433 21.7451558 54.9492509 21.7451558"></polygon>
                        <path d="M67.6405498,23.8386708 C68.0691409,21.4892549 70.0641924,20.2613257 71.8467354,20.2613257 C73.5580756,20.2613257 75.588866,21.3819894 76.0713402,23.8386708 L67.6405498,23.8386708 Z M71.8467354,30.3728124 C74.3561512,30.3728124 76.6005498,29.0491398 77.4316151,26.6700956 L77.483299,26.5216796 L75.7406186,26.5216796 L75.7139519,26.5949274 C75.2903093,27.7432991 74.017457,29.1001664 71.8263918,29.1437858 C69.723299,29.1437858 67.7912027,27.3809009 67.627354,25.3425823 L77.7571134,25.3425823 L77.7634364,25.2375115 C77.8390378,23.9020425 77.5457045,22.6971575 76.8933333,21.659069 C76.0949828,20.2698301 74.3448797,18.7782637 71.8241924,18.7574142 C68.5741581,18.8185912 65.9300344,21.4947416 65.9300344,24.7228566 C65.9300344,27.9896531 68.5843299,30.3728124 71.8467354,30.3728124 Z" id="Fill-21" fill="#FFFFFF"></path>
                        <polygon id="Fill-23" fill="#FFFFFF" points="90.0119588 30.1087363 94.3547766 19.0417363 92.6483849 19.0417363 89.1687973 28.1828956 86.6563574 20.383515 85.2504467 20.383515 82.7586254 28.1807009 79.3466667 19.1144354 79.3189003 19.0417363 77.5929897 19.0417363 81.8871478 30.0365858 81.9143643 30.1087363 83.6831615 30.1087363 85.9435052 23.1792761 88.2442612 30.1087363"></polygon>
                        <mask id="mask-2" fill="white">
                            <use xlink:href="#path-1"></use>
                        </mask>
                        <g id="Clip-26"></g>
                        <polygon id="Fill-25" fill="#FFFFFF" mask="url(#mask-2)" points="95.6307904 30.1086814 97.28 30.1086814 97.28 15.1189469 95.6307904 15.1189469"></polygon>
                        <path d="M108.888935,23.8386708 L100.458419,23.8386708 C100.886735,21.4892549 102.881787,20.2613257 104.664605,20.2613257 C106.37512,20.2613257 108.40646,21.3819894 108.888935,23.8386708 M104.641787,18.7574142 C101.391753,18.8185912 98.747354,21.4947416 98.747354,24.7228566 C98.747354,27.9896531 101.401924,30.3728124 104.664605,30.3728124 C107.173746,30.3728124 109.418144,29.0491398 110.24921,26.6700956 L110.300893,26.5216796 L108.558213,26.5216796 L108.531546,26.5949274 C108.107904,27.7432991 106.835052,29.1001664 104.643986,29.1437858 C102.541168,29.1437858 100.609072,27.3809009 100.445223,25.3425823 L110.574983,25.3425823 L110.581031,25.2375115 C110.656632,23.9020425 110.363299,22.6971575 109.710928,21.659069 C108.912577,20.2698301 107.162474,18.7782637 104.641787,18.7574142" id="Fill-27" fill="#FFFFFF" mask="url(#mask-2)"></path>
                        <polygon id="Fill-28" fill="#FFFFFF" mask="url(#mask-2)" points="113.027409 30.1087363 114.676619 30.1087363 114.676619 20.5459221 119.118131 20.5459221 119.118131 30.1087363 120.76734 30.1087363 120.76734 20.5459221 123.435656 20.5459221 123.435656 19.0417363 120.76734 19.0417363 120.76734 15.1190018 119.118131 15.1190018 119.118131 19.0417363 114.676619 19.0417363 114.676619 15.1190018 113.027409 15.1190018 113.027409 19.0417363 110.684866 19.0417363 110.684866 20.5459221 113.027409 20.5459221"></polygon>
                        <polygon id="Fill-29" fill="#FFFFFF" mask="url(#mask-2)" points="53.096 49.8231726 54.827134 49.8231726 54.827134 42.9532434 60.7133196 42.9532434 60.7133196 41.3681283 54.827134 41.3681283 54.827134 36.1444912 60.9373746 36.1444912 60.9373746 34.5591018 53.096 34.5591018"></polygon>
                        <path d="M67.8945155,48.5838584 C65.5302543,48.5838584 63.6069553,46.6187876 63.6069553,44.203531 C63.6069553,41.4225841 65.8326598,39.7011239 67.8945155,39.7011239 C69.6237251,39.7011239 72.1820756,41.0933805 72.1820756,44.0814513 C72.1820756,46.8994336 70.0022818,48.5838584 67.8945155,48.5838584 M67.8741718,38.1974867 C65.0285361,38.1974867 61.9571959,40.5013628 61.9571959,44.2238319 C61.9571959,47.402292 64.6667491,50.0874956 67.8741718,50.0874956 C71.1035876,50.0874956 73.8318351,47.3652566 73.8318351,44.1426283 C73.8318351,40.9197257 71.1035876,38.1974867 67.8741718,38.1974867" id="Fill-30" fill="#FFFFFF" mask="url(#mask-2)"></path>
                        <path d="M83.48811,44.4677442 C83.48811,46.4336381 82.9545017,47.1290805 82.3598625,47.7219212 C81.7789691,48.3018681 81.0320275,48.5838858 80.0764261,48.5838858 C79.0141581,48.5838858 78.1720962,48.2406912 77.5769072,47.5688416 C77.0584192,46.9219566 76.8068729,45.9875673 76.8068729,44.7116292 L76.8068729,38.4820009 L75.1576632,38.4820009 L75.1576632,44.7319301 C75.1576632,46.3354257 75.4949828,47.5625319 76.1597251,48.3789566 C76.6713402,49.0170628 77.8608935,50.087523 80.0764261,50.087523 C82.150378,50.087523 83.1598625,48.9772841 83.5694845,48.3369832 L83.5694845,49.8230628 L85.1375945,49.8230628 L85.1375945,38.4820009 L83.48811,38.4820009 L83.48811,44.4677442 Z" id="Fill-31" fill="#FFFFFF" mask="url(#mask-2)"></path>
                        <path d="M92.1358076,38.197377 C90.5319588,38.197377 89.3874914,38.9474124 88.7848797,39.7224124 L88.7848797,38.4818637 L87.1356701,38.4818637 L87.1356701,49.8232 L88.7848797,49.8232 L88.7848797,43.5922 C88.7670103,42.3212 89.1241237,41.2672 89.7899656,40.6249788 C90.6724399,39.7679522 91.8086598,39.7010142 92.1358076,39.7010142 C92.4629553,39.7010142 93.5991753,39.7679522 94.4813746,40.6252531 C95.1428179,41.2628106 95.5068041,42.317085 95.5068041,43.593846 L95.5068041,49.8232 L97.1565636,49.8232 L97.1565636,43.593846 C97.1565636,41.8789699 96.6658419,40.4949434 95.7382818,39.5921027 C94.7722337,38.6275363 93.6610309,38.197377 92.1358076,38.197377" id="Fill-32" fill="#FFFFFF" mask="url(#mask-2)"></path>
                        <path d="M104.561732,48.5838584 C102.02455,48.5838584 100.111148,46.6920354 100.111148,44.1829558 C100.111148,41.2406991 102.350048,39.7011239 104.561732,39.7011239 C106.959808,39.7011239 108.910323,41.7026814 108.910323,44.1629292 C108.910323,46.6418319 107.00022,48.5838584 104.561732,48.5838584 Z M108.828948,40.2166018 C107.390598,38.3475487 105.214103,38.1974867 104.561732,38.1974867 C100.743175,38.1974867 98.4619381,41.2099735 98.4619381,44.1220531 C98.4619381,47.4675841 101.141526,50.0874956 104.561732,50.0874956 C105.905237,50.0874956 107.697127,49.5478761 108.828948,48.053292 L108.828948,49.8233097 L110.478708,49.8233097 L110.478708,34.5592389 L108.828948,34.5592389 L108.828948,40.2166018 Z" id="Fill-33" fill="#FFFFFF" mask="url(#mask-2)"></path>
                        <path d="M117.762694,48.5838584 C115.225512,48.5838584 113.311835,46.6920354 113.311835,44.1829558 C113.311835,41.2406991 115.55101,39.7011239 117.762694,39.7011239 C120.160495,39.7011239 122.11101,41.7026814 122.11101,44.1629292 C122.11101,46.6418319 120.200907,48.5838584 117.762694,48.5838584 Z M122.029636,40.2415664 C120.697952,38.4026903 118.619601,38.1974867 117.762694,38.1974867 C113.944137,38.1974867 111.662625,41.2099735 111.662625,44.1220531 C111.662625,47.4675841 114.342213,50.0874956 117.762694,50.0874956 C118.605581,50.0874956 120.658639,49.8839381 122.029636,48.0543894 L122.029636,49.8233097 L123.67912,49.8233097 L123.67912,38.4819735 L122.029636,38.4819735 L122.029636,40.2415664 Z" id="Fill-34" fill="#FFFFFF" mask="url(#mask-2)"></path>
                        <polygon id="Fill-35" fill="#FFFFFF" mask="url(#mask-2)" points="128.996866 34.5592115 127.347656 34.5592115 127.347656 38.481946 125.005388 38.481946 125.005388 39.9858575 127.347656 39.9858575 127.347656 49.8232823 128.996866 49.8232823 128.996866 39.9858575 131.665182 39.9858575 131.665182 38.481946 128.996866 38.481946"></polygon>
                        <polygon id="Fill-36" fill="#FFFFFF" mask="url(#mask-2)" points="133.29622 37.3434779 134.94543 37.3434779 134.94543 34.5592389 133.29622 34.5592389"></polygon>
                        <polygon id="Fill-37" fill="#FFFFFF" mask="url(#mask-2)" points="133.29622 49.8233097 134.94543 49.8233097 134.94543 38.4819735 133.29622 38.4819735"></polygon>
                        <path d="M142.635162,48.5838584 C140.2709,48.5838584 138.347326,46.6187876 138.347326,44.203531 C138.347326,41.4225841 140.573031,39.7011239 142.635162,39.7011239 C144.364371,39.7011239 146.922722,41.0933805 146.922722,44.0814513 C146.922722,46.8994336 144.742653,48.5838584 142.635162,48.5838584 M142.614543,38.1974867 C139.769182,38.1974867 136.698117,40.5013628 136.698117,44.2238319 C136.698117,47.402292 139.40767,50.0874956 142.614543,50.0874956 C145.843959,50.0874956 148.572206,47.3652566 148.572206,44.1426283 C148.572206,40.9197257 145.843959,38.1974867 142.614543,38.1974867" id="Fill-38" fill="#FFFFFF" mask="url(#mask-2)"></path>
                        <path d="M158.562474,39.5921027 C157.596151,38.6275363 156.484674,38.197377 154.96,38.197377 C153.356151,38.197377 152.211409,38.9474124 151.608797,39.7224124 L151.608797,38.4818637 L149.959588,38.4818637 L149.959588,49.8232 L151.608797,49.8232 L151.608797,43.5922 C151.591203,42.3212 151.947766,41.2672 152.613883,40.6249788 C153.495808,39.7679522 154.632577,39.7010142 154.96,39.7010142 C155.287148,39.7010142 156.423368,39.7679522 157.305567,40.6252531 C157.966735,41.2628106 158.330722,42.317085 158.330722,43.593846 L158.330722,49.8232 L159.980481,49.8232 L159.980481,43.593846 C159.980481,41.8789699 159.489759,40.4949434 158.562474,39.5921027" id="Fill-39" fill="#FFFFFF" mask="url(#mask-2)"></path>
                        <polygon id="Fill-40" fill="#FFFFFF" mask="url(#mask-2)" points="91.4804948 8.87420265 92.3123849 8.87420265 92.3123849 7.70059204 93.483244 7.70059204 93.483244 6.86990177 92.3123849 6.86990177 92.3123849 5.69629115 91.4804948 5.69629115 91.4804948 6.86990177 90.3101856 6.86990177 90.3101856 7.70059204 91.4804948 7.70059204"></polygon>
                    </g>
                </g>
            </g>
        </g>
    </g>
</svg>