<?xml version="1.0" encoding="UTF-8" standalone="no"?>
<svg width="10px" height="14px" viewBox="0 0 10 14" version="1.1" xmlns="http://www.w3.org/2000/svg" xmlns:xlink="http://www.w3.org/1999/xlink">
    <!-- Generator: Sketch 48.2 (47327) - http://www.bohemiancoding.com/sketch -->
    <title>location-icon</title>
    <desc>Created with Sketch.</desc>
    <defs></defs>
    <g id="02_opendata04_sdg_national_reporting_project_news_and_updates_design_01" stroke="none" stroke-width="1" fill="none" fill-rule="evenodd" transform="translate(-872.000000, -1547.000000)" fill-opacity="0.65">
        <path d="M877,1547.43095 C878.250006,1547.43095 879.312496,1547.86845 880.1875,1548.74345 C881.062504,1549.61846 881.5,1550.68095 881.5,1551.93095 C881.5,1552.51429 881.270836,1553.30595 880.8125,1554.30595 C880.479165,1555.11846 880.020836,1556.01428 879.4375,1556.99345 C879.145832,1557.51429 878.828127,1558.04553 878.484375,1558.5872 C878.140623,1559.12887 877.875001,1559.53512 877.6875,1559.80595 L877.40625,1560.2122 L877,1560.80595 L876.59375,1560.2122 C875.906247,1559.23303 875.22917,1558.16013 874.5625,1556.99345 C873.979164,1556.01428 873.520835,1555.11846 873.1875,1554.30595 C872.729164,1553.30595 872.5,1552.51429 872.5,1551.93095 C872.5,1550.68095 872.937496,1549.61846 873.8125,1548.74345 C874.687504,1547.86845 875.749994,1547.43095 877,1547.43095 Z M877,1548.43095 C876.020828,1548.43095 875.192712,1548.76949 874.515625,1549.44658 C873.838538,1550.12366 873.5,1550.95178 873.5,1551.93095 C873.5,1552.36846 873.687498,1553.03512 874.0625,1553.93095 C874.375002,1554.61846 874.83333,1555.47261 875.4375,1556.49345 C875.958336,1557.38929 876.479164,1558.22262 877,1558.99345 C877.520836,1558.22262 878.041664,1557.38929 878.5625,1556.49345 C879.16667,1555.47261 879.624998,1554.61846 879.9375,1553.93095 C880.312502,1553.03512 880.5,1552.36846 880.5,1551.93095 C880.5,1550.95178 880.161462,1550.12366 879.484375,1549.44658 C878.807288,1548.76949 877.979172,1548.43095 877,1548.43095 Z M877,1550.93095 C877.270835,1550.93095 877.505207,1551.02991 877.703125,1551.22783 C877.901043,1551.42575 878,1551.66012 878,1551.93095 C878,1552.20179 877.901043,1552.43616 877.703125,1552.63408 C877.505207,1552.832 877.270835,1552.93095 877,1552.93095 C876.729165,1552.93095 876.494793,1552.832 876.296875,1552.63408 C876.098957,1552.43616 876,1552.20179 876,1551.93095 C876,1551.66012 876.098957,1551.42575 876.296875,1551.22783 C876.494793,1551.02991 876.729165,1550.93095 877,1550.93095 Z" id="location-icon" fill="#000000"></path>
    </g>
</svg>