<!-- Generated by IcoMoon.io -->
<svg version="1.1" xmlns="http://www.w3.org/2000/svg" width="32" height="32" viewBox="0 0 32 32">
<title>location-icon</title>
<path opacity="0.42250000000000004" fill="#000" d="M16 0.985c2.857 0 5.286 1 7.286 3s3 4.429 3 7.286c0 1.333-0.524 3.143-1.571 5.429-0.762 1.857-1.81 3.905-3.143 6.143-0.667 1.191-1.393 2.405-2.179 3.643s-1.393 2.167-1.821 2.786l-0.643 0.929-0.929 1.357-0.929-1.357c-1.571-2.238-3.119-4.69-4.643-7.357-1.333-2.238-2.381-4.286-3.143-6.143-1.048-2.286-1.571-4.095-1.571-5.429 0-2.857 1-5.286 3-7.286s4.429-3 7.286-3zM16 3.271c-2.238 0-4.131 0.774-5.679 2.321s-2.321 3.44-2.321 5.679c0 1 0.429 2.524 1.286 4.571 0.714 1.571 1.762 3.524 3.143 5.857 1.19 2.048 2.381 3.952 3.571 5.714 1.19-1.762 2.381-3.667 3.571-5.714 1.381-2.333 2.429-4.286 3.143-5.857 0.857-2.048 1.286-3.571 1.286-4.571 0-2.238-0.774-4.131-2.321-5.679s-3.44-2.321-5.679-2.321zM16 8.985c0.619 0 1.155 0.226 1.607 0.679s0.679 0.988 0.679 1.607c0 0.619-0.226 1.155-0.679 1.607s-0.988 0.679-1.607 0.679c-0.619 0-1.155-0.226-1.607-0.679s-0.679-0.988-0.679-1.607c0-0.619 0.226-1.155 0.679-1.607s0.988-0.679 1.607-0.679z"></path>
</svg>
