<!-- Generated by IcoMoon.io -->
<svg version="1.1" xmlns="http://www.w3.org/2000/svg" width="32" height="32" viewBox="0 0 32 32">
<title>news-and-events-mobile-icon</title>
<path fill="#34a8fc" d="M0.4 2.493h24v8.4h7.2v13.2c0 1.35-0.462 2.488-1.387 3.413s-2.063 1.387-3.413 1.387h-21.6c-1.35 0-2.487-0.462-3.413-1.387s-1.387-2.063-1.387-3.413v-21.6zM2.8 4.893v19.2c0 0.7 0.225 1.275 0.675 1.725s1.025 0.675 1.725 0.675h17.475c-0.45-0.8-0.675-1.6-0.675-2.4v-19.2h-19.2zM5.2 7.293h14.4v6h-14.4v-6zM7.6 9.693v1.2h9.6v-1.2h-9.6zM24.4 13.293v10.8c0 0.7 0.225 1.275 0.675 1.725s1.025 0.675 1.725 0.675c0.7 0 1.275-0.225 1.725-0.675s0.675-1.025 0.675-1.725v-10.8h-4.8zM5.2 14.493h6v2.4h-6v-2.4zM13.6 14.493h6v2.4h-6v-2.4zM5.2 18.093h6v2.4h-6v-2.4zM13.6 18.093h6v2.4h-6v-2.4zM5.2 21.693h6v2.4h-6v-2.4zM13.6 21.693h6v2.4h-6v-2.4z"></path>
</svg>
