<?xml version="1.0" encoding="UTF-8" standalone="no"?>
<svg width="16px" height="16px" viewBox="0 0 20 17" version="1.1" xmlns="http://www.w3.org/2000/svg" xmlns:xlink="http://www.w3.org/1999/xlink">
    <!-- Generator: Sketch 48.2 (47327) - http://www.bohemiancoding.com/sketch -->
    <title>news-and-events-mobile-icon</title>
    <desc>Created with Sketch.</desc>
    <defs></defs>
    <g id="02_mobile-tab-bar_01" stroke="none" stroke-width="1" fill="none" fill-rule="evenodd" transform="translate(-190.000000, -10.000000)">
        <g id="tab" fill="#34A8FC">
            <path d="M190.25,10.0581245 L205.25,10.0581245 L205.25,15.3081245 L209.75,15.3081245 L209.75,23.5581245 C209.75,24.4018788 209.46094,25.1128092 208.882812,25.690937 C208.304685,26.2690649 207.593754,26.5581245 206.75,26.5581245 L193.25,26.5581245 C192.406246,26.5581245 191.695315,26.2690649 191.117188,25.690937 C190.53906,25.1128092 190.25,24.4018788 190.25,23.5581245 L190.25,10.0581245 Z M191.75,11.5581245 L191.75,23.5581245 C191.75,23.9956267 191.890624,24.3549981 192.171875,24.6362495 C192.453126,24.9175009 192.812498,25.0581245 193.25,25.0581245 L204.171875,25.0581245 C203.890624,24.558122 203.75,24.058127 203.75,23.5581245 L203.75,11.5581245 L191.75,11.5581245 Z M193.25,13.0581245 L202.25,13.0581245 L202.25,16.8081245 L193.25,16.8081245 L193.25,13.0581245 Z M194.75,14.5581245 L194.75,15.3081245 L200.75,15.3081245 L200.75,14.5581245 L194.75,14.5581245 Z M205.25,16.8081245 L205.25,23.5581245 C205.25,23.9956267 205.390624,24.3549981 205.671875,24.6362495 C205.953126,24.9175009 206.312498,25.0581245 206.75,25.0581245 C207.187502,25.0581245 207.546874,24.9175009 207.828125,24.6362495 C208.109376,24.3549981 208.25,23.9956267 208.25,23.5581245 L208.25,16.8081245 L205.25,16.8081245 Z M193.25,17.5581245 L197,17.5581245 L197,19.0581245 L193.25,19.0581245 L193.25,17.5581245 Z M198.5,17.5581245 L202.25,17.5581245 L202.25,19.0581245 L198.5,19.0581245 L198.5,17.5581245 Z M193.25,19.8081245 L197,19.8081245 L197,21.3081245 L193.25,21.3081245 L193.25,19.8081245 Z M198.5,19.8081245 L202.25,19.8081245 L202.25,21.3081245 L198.5,21.3081245 L198.5,19.8081245 Z M193.25,22.0581245 L197,22.0581245 L197,23.5581245 L193.25,23.5581245 L193.25,22.0581245 Z M198.5,22.0581245 L202.25,22.0581245 L202.25,23.5581245 L198.5,23.5581245 L198.5,22.0581245 Z" id="news-and-events-mobile-icon"></path>
        </g>
    </g>
</svg>