<?xml version="1.0" encoding="UTF-8" standalone="no"?>
<svg width="188px" height="100px" viewBox="0 0 188 100" version="1.1" xmlns="http://www.w3.org/2000/svg" xmlns:xlink="http://www.w3.org/1999/xlink">
    <!-- Generator: Sketch 48.2 (47327) - http://www.bohemiancoding.com/sketch -->
    <title>opendata_enterprise_logo</title>
    <desc>Created with Sketch.</desc>
    <defs>
        <polygon id="path-1" points="0.388429752 98.614786 187.61157 98.614786 187.61157 0 0.388429752 0"></polygon>
    </defs>
    <g id="Footer" stroke="none" stroke-width="1" fill="none" fill-rule="evenodd" transform="translate(-686.000000, -36.000000)">
        <g transform="translate(0.000000, 0.687500)" id="opendata_enterprise_and_hewlett_foundation_logos">
            <g transform="translate(686.000000, 36.000000)">
                <g id="opendata_enterprise_logo">
                    <polygon id="Fill-1" fill="#FFFFFF" points="55.7763764 76.4718549 55.7763764 83 55.2127512 83 55.2127512 76.4718549 53 76.4718549 53 76 58 76 58 76.4718549"></polygon>
                    <polygon id="Fill-2" fill="#FFFFFF" points="64.4363747 83 64.4363747 79.7064365 60.5636253 79.7064365 60.5636253 83 60 83 60 76 60.5636253 76 60.5636253 79.2349912 64.4363747 79.2349912 64.4363747 76 65 76 65 83"></polygon>
                    <polygon id="Fill-3" fill="#FFFFFF" points="68 83 68 76 72 76 72 76.4718549 68.4999518 76.4718549 68.4999518 79.2349912 71.4815315 79.2349912 71.4815315 79.7064365 68.4999518 79.7064365 68.4999518 82.5281451 72 82.5281451 72 83"></polygon>
                    <g id="Group-63">
                        <path d="M79.4684545,81.539135 C78.8438595,81.539135 78.246843,81.2987615 77.8090826,80.8642401 C77.2027438,80.2633062 77.1938099,79.6808626 77.1938099,78.1923957 C77.1938099,76.7035436 77.2027438,76.1214852 77.8090826,75.5201661 C78.246843,75.0856447 78.8438595,74.8452712 79.4684545,74.8452712 C80.6523884,74.8452712 81.5100413,75.5760222 81.724843,76.7682595 L81.2117273,76.7682595 C81.0159587,75.8622362 80.3633967,75.2890377 79.4684545,75.2890377 C78.9930165,75.2890377 78.5455455,75.4646953 78.2099421,75.7975202 C77.7345041,76.2690222 77.6968264,76.7778899 77.6968264,78.1923957 C77.6968264,79.6069016 77.7345041,80.115384 78.2099421,80.586886 C78.5455455,80.9200961 78.9930165,81.0957537 79.4684545,81.0957537 C80.3633967,81.0957537 81.0346033,80.52217 81.2303719,79.6161467 L81.724843,79.6161467 C81.5100413,80.8087693 80.6337438,81.539135 79.4684545,81.539135 Z" id="Fill-4" fill="#FFFFFF"></path>
                        <polygon id="Fill-6" fill="#FFFFFF" points="84.3902091 81.4838568 84.3902091 74.9005494 88.4178372 74.9005494 88.4178372 75.344316 84.893614 75.344316 84.893614 77.9429696 87.8957876 77.9429696 87.8957876 78.386351 84.893614 78.386351 84.893614 81.0400903 88.4178372 81.0400903 88.4178372 81.4838568"></polygon>
                        <polygon id="Fill-8" fill="#FFFFFF" points="95.2322934 81.4838568 91.4008223 75.7607323 91.4008223 81.4838568 90.8974174 81.4838568 90.8974174 74.9005494 91.4008223 74.9005494 95.2322934 80.6055689 95.2322934 74.9005494 95.7360868 74.9005494 95.7360868 81.4838568"></polygon>
                        <polygon id="Fill-10" fill="#FFFFFF" points="100.452556 75.3445086 100.452556 81.4840494 99.9491512 81.4840494 99.9491512 75.3445086 97.9724322 75.3445086 97.9724322 74.900742 102.438209 74.900742 102.438209 75.3445086"></polygon>
                        <polygon id="Fill-12" fill="#FFFFFF" points="104.675603 81.4838568 104.675603 74.9005494 108.702843 74.9005494 108.702843 75.344316 105.179008 75.344316 105.179008 77.9429696 108.180793 77.9429696 108.180793 78.386351 105.179008 78.386351 105.179008 81.0400903 108.702843 81.0400903 108.702843 81.4838568"></polygon>
                        <path d="M113.643631,75.3445086 L111.685945,75.3445086 L111.685945,78.007493 L113.643631,78.007493 C114.49235,78.007493 115.107622,77.5822167 115.107622,76.6758082 C115.107622,75.7697848 114.49235,75.3445086 113.643631,75.3445086 Z M115.097912,81.4840494 L113.513118,78.4508743 L111.685945,78.4508743 L111.685945,81.4840494 L111.18254,81.4840494 L111.18254,74.900742 L113.708887,74.900742 C114.790275,74.900742 115.610639,75.5201661 115.610639,76.6669482 C115.610639,77.6469327 115.014011,78.2848471 114.081779,78.4420144 L115.685606,81.4840494 L115.097912,81.4840494 Z" id="Fill-14" fill="#FFFFFF"></path>
                        <polygon id="Fill-16" fill="#FFFFFF" points="122.052125 75.3445086 122.052125 78.0537187 125.054298 78.0537187 125.054298 78.4974852 122.052125 78.4974852 122.052125 81.4840494 121.54872 81.4840494 121.54872 74.900742 125.57596 74.900742 125.57596 75.3445086"></polygon>
                        <path d="M130.936329,75.7974432 C130.600726,75.4650035 130.152866,75.2893459 129.677428,75.2893459 C129.20199,75.2893459 128.754519,75.4650035 128.418916,75.7974432 C127.943478,76.2693304 127.906188,76.7778128 127.906188,78.1923187 C127.906188,79.6072097 127.943478,80.115307 128.418916,80.5871942 C128.754519,80.9200191 129.20199,81.0956767 129.677428,81.0956767 C130.152866,81.0956767 130.600726,80.9200191 130.936329,80.5871942 C131.411767,80.115307 131.448668,79.6072097 131.448668,78.1923187 C131.448668,76.7778128 131.411767,76.2693304 130.936329,75.7974432 M131.3368,80.864163 C130.898651,81.2986844 130.302023,81.539058 129.677428,81.539058 C129.052833,81.539058 128.456205,81.2986844 128.018056,80.864163 C127.412106,80.2636144 127.402395,79.6807856 127.402395,78.1923187 C127.402395,76.7038518 127.412106,76.1214082 128.018056,75.5200891 C128.456205,75.0855677 129.052833,74.8451942 129.677428,74.8451942 C130.302023,74.8451942 130.898651,75.0855677 131.3368,75.5200891 C131.943139,76.1214082 131.952461,76.7038518 131.952461,78.1923187 C131.952461,79.6807856 131.943139,80.2636144 131.3368,80.864163" id="Fill-18" fill="#FFFFFF"></path>
                        <path d="M137.135279,75.3445086 L135.177593,75.3445086 L135.177593,78.007493 L137.135279,78.007493 C137.983998,78.007493 138.599271,77.5822167 138.599271,76.6758082 C138.599271,75.7697848 137.983998,75.3445086 137.135279,75.3445086 Z M138.58956,81.4840494 L137.004767,78.4508743 L135.177593,78.4508743 L135.177593,81.4840494 L134.674188,81.4840494 L134.674188,74.900742 L137.200536,74.900742 C138.281924,74.900742 139.102288,75.5201661 139.102288,76.6669482 C139.102288,77.6469327 138.50566,78.2848471 137.573428,78.4420144 L139.177255,81.4840494 L138.58956,81.4840494 Z" id="Fill-20" fill="#FFFFFF"></path>
                        <path d="M5.24535537,90.6842311 C4.96024793,90.3587253 4.51782645,90.1464724 3.97557851,90.1464724 C3.43333058,90.1464724 2.97692562,90.3587253 2.69181818,90.6842311 C2.30649587,91.108737 2.20666942,91.5756163 2.20666942,93.5140132 C2.20666942,95.4524101 2.30649587,95.9192895 2.69181818,96.3434101 C2.97692562,96.668916 3.43333058,96.8811689 3.97557851,96.8811689 C4.51782645,96.8811689 4.96024793,96.668916 5.24535537,96.3434101 C5.63067769,95.9192895 5.74487603,95.4524101 5.74487603,93.5140132 C5.74487603,91.5756163 5.63067769,91.108737 5.24535537,90.6842311 M6.71478512,97.5317953 C6.0016281,98.2394335 5.13115702,98.6358187 3.97557851,98.6358187 C2.82,98.6358187 1.93554545,98.2394335 1.22238843,97.5317953 C0.194991736,96.5132895 0.223735537,95.2540249 0.223735537,93.5140132 C0.223735537,91.7736163 0.194991736,90.514737 1.22238843,89.4958459 C1.93554545,88.788593 2.82,88.3922078 3.97557851,88.3922078 C5.13115702,88.3922078 6.0016281,88.788593 6.71478512,89.4958459 C7.74179339,90.514737 7.72780992,91.7736163 7.72780992,93.5140132 C7.72780992,95.2540249 7.74179339,96.5132895 6.71478512,97.5317953" id="Fill-22" fill="#34A8FC"></path>
                        <path d="M15.0192579,90.2316817 L13.1648942,90.2316817 L13.1648942,92.9905844 L15.0192579,92.9905844 C15.9180843,92.9905844 16.4886876,92.4385728 16.4886876,91.6180669 C16.4886876,90.7975611 15.9180843,90.2316817 15.0192579,90.2316817 M15.1190843,94.7591019 L13.1648942,94.7591019 L13.1648942,98.5507634 L11.1815719,98.5507634 L11.1815719,88.4770319 L15.1190843,88.4770319 C17.2162165,88.4770319 18.4716215,89.9061759 18.4716215,91.6180669 C18.4716215,93.329958 17.2162165,94.7591019 15.1190843,94.7591019" id="Fill-24" fill="#34A8FC"></path>
                        <polygon id="Fill-26" fill="#34A8FC" points="21.5688826 98.5506479 21.5688826 88.4773016 28.2599736 88.4773016 28.2599736 90.2315661 23.5518165 90.2315661 23.5518165 92.5940837 27.5608 92.5940837 27.5608 94.3487335 23.5518165 94.3487335 23.5518165 96.7959981 28.2599736 96.7959981 28.2599736 98.5506479"></polygon>
                        <polygon id="Fill-28" fill="#34A8FC" points="37.6341041 98.5506479 33.6111372 92.367963 33.6111372 98.5506479 31.6282033 98.5506479 31.6282033 88.4773016 33.3971124 88.4773016 37.4200793 94.6457335 37.4200793 88.4773016 39.4030132 88.4773016 39.4030132 98.5506479"></polygon>
                        <path d="M52.901219,90.8538794 C52.5590124,90.4440117 52.102219,90.2317588 51.4178058,90.2317588 L49.9196322,90.2317588 L49.9196322,96.7961907 L51.4178058,96.7961907 C52.102219,96.7961907 52.5590124,96.5839377 52.901219,96.17407 C53.2721694,95.7210584 53.3292686,94.9995525 53.3292686,93.4714086 C53.3292686,91.9432646 53.2721694,91.3068911 52.901219,90.8538794 M54.2851942,97.5885759 C53.614376,98.2534553 52.6588388,98.5504553 51.6030868,98.5504553 L47.9366983,98.5504553 L47.9366983,88.4771089 L51.6030868,88.4771089 C52.6588388,88.4771089 53.614376,88.7744942 54.2851942,89.4393735 C55.4264008,90.5711323 55.3122025,91.9575175 55.3122025,93.4714086 C55.3122025,94.9852996 55.4264008,96.4568171 54.2851942,97.5885759" id="Fill-30" fill="#34A8FC"></path>
                        <path d="M62.0329306,91.4482646 L60.7491702,95.1128054 L63.2739636,95.1128054 L62.0329306,91.4482646 Z M64.4011868,98.5504553 L63.8022281,96.76807 L60.1925504,96.76807 L59.5792198,98.5504553 L57.510443,98.5504553 L61.2055752,88.4771089 L62.7608479,88.4771089 L66.4695752,98.5504553 L64.4011868,98.5504553 Z" id="Fill-32" fill="#34A8FC"></path>
                        <polygon id="Fill-34" fill="#34A8FC" points="72.1768512 90.2316817 72.1768512 98.5507634 70.1939174 98.5507634 70.1939174 90.2316817 67.5401653 90.2316817 67.5401653 88.4770319 74.8302149 88.4770319 74.8302149 90.2316817"></polygon>
                        <path d="M80.4230207,91.4482646 L79.1392603,95.1128054 L81.6640537,95.1128054 L80.4230207,91.4482646 Z M82.7912769,98.5504553 L82.1923182,96.76807 L78.5826405,96.76807 L77.9693099,98.5504553 L75.9005331,98.5504553 L79.5956653,88.4771089 L81.150938,88.4771089 L84.8596653,98.5504553 L82.7912769,98.5504553 Z" id="Fill-36" fill="#34A8FC"></path>
                        <polygon id="Fill-38" fill="#FFFFFF" points="92.2803438 98.5506479 92.2803438 88.4773016 98.9710463 88.4773016 98.9710463 90.2315661 94.2628893 90.2315661 94.2628893 92.5940837 98.2722612 92.5940837 98.2722612 94.3487335 94.2628893 94.3487335 94.2628893 96.7959981 98.9710463 96.7959981 98.9710463 98.5506479"></polygon>
                        <polygon id="Fill-40" fill="#FFFFFF" points="108.345565 98.5506479 104.322598 92.367963 104.322598 98.5506479 102.339664 98.5506479 102.339664 88.4773016 104.108574 88.4773016 108.13154 94.6457335 108.13154 88.4773016 110.114863 88.4773016 110.114863 98.5506479"></polygon>
                        <polygon id="Fill-42" fill="#FFFFFF" points="117.791555 90.2316817 117.791555 98.5507634 115.80901 98.5507634 115.80901 90.2316817 113.154869 90.2316817 113.154869 88.4770319 120.445307 88.4770319 120.445307 90.2316817"></polygon>
                        <polygon id="Fill-44" fill="#FFFFFF" points="123.485236 98.5506479 123.485236 88.4773016 130.175939 88.4773016 130.175939 90.2315661 125.467782 90.2315661 125.467782 92.5940837 129.477154 92.5940837 129.477154 94.3487335 125.467782 94.3487335 125.467782 96.7959981 130.175939 96.7959981 130.175939 98.5506479"></polygon>
                        <path d="M137.396265,90.2316817 L135.527141,90.2316817 L135.527141,92.8911992 L137.396265,92.8911992 C138.266348,92.8911992 138.83734,92.3395728 138.83734,91.5614405 C138.83734,90.7833082 138.266348,90.2316817 137.396265,90.2316817 Z M138.937166,98.5507634 L136.953844,94.5325961 L135.527141,94.5325961 L135.527141,98.5507634 L133.544596,98.5507634 L133.544596,88.4770319 L137.524836,88.4770319 C139.593224,88.4770319 140.819885,89.87767 140.819885,91.5614405 C140.819885,92.9763315 139.949802,93.8534638 138.965521,94.2070903 L141.233951,98.5507634 L138.937166,98.5507634 Z" id="Fill-46" fill="#FFFFFF"></path>
                        <path d="M148.139921,90.2316817 L146.285558,90.2316817 L146.285558,92.9905844 L148.139921,92.9905844 C149.038748,92.9905844 149.609351,92.4385728 149.609351,91.6180669 C149.609351,90.7975611 149.038748,90.2316817 148.139921,90.2316817 M148.240136,94.7591019 L146.285558,94.7591019 L146.285558,98.5507634 L144.302624,98.5507634 L144.302624,88.4770319 L148.240136,88.4770319 C150.33688,88.4770319 151.592674,89.9061759 151.592674,91.6180669 C151.592674,93.329958 150.33688,94.7591019 148.240136,94.7591019" id="Fill-48" fill="#FFFFFF"></path>
                        <path d="M158.541798,90.2316817 L156.672674,90.2316817 L156.672674,92.8911992 L158.541798,92.8911992 C159.411881,92.8911992 159.982873,92.3395728 159.982873,91.5614405 C159.982873,90.7833082 159.411881,90.2316817 158.541798,90.2316817 Z M160.082699,98.5507634 L158.099377,94.5325961 L156.672674,94.5325961 L156.672674,98.5507634 L154.690129,98.5507634 L154.690129,88.4770319 L158.670369,88.4770319 C160.738757,88.4770319 161.965418,89.87767 161.965418,91.5614405 C161.965418,92.9763315 161.095336,93.8534638 160.111055,94.2070903 L162.379484,98.5507634 L160.082699,98.5507634 Z" id="Fill-50" fill="#FFFFFF"></path>
                        <mask id="mask-2" fill="white">
                            <use xlink:href="#path-1"></use>
                        </mask>
                        <g id="Clip-53"></g>
                        <polygon id="Fill-52" fill="#FFFFFF" mask="url(#mask-2)" points="165.448157 98.5504553 167.430702 98.5504553 167.430702 88.4771089 165.448157 88.4771089"></polygon>
                        <path d="M174.022821,98.6356646 C172.481921,98.6356646 171.31197,98.3101588 170.313706,97.3055206 L171.597466,96.0323883 C172.23954,96.6691471 173.109623,96.8810148 174.051177,96.8810148 C175.221127,96.8810148 175.84883,96.4426412 175.84883,95.6360031 C175.84883,95.2823767 175.749003,94.9849914 175.535367,94.7873767 C175.335326,94.6032444 175.106929,94.5042444 174.636152,94.4337502 L173.409491,94.2634856 C172.539408,94.136365 171.896945,93.8674856 171.440929,93.4287268 C170.95578,92.9479798 170.713012,92.2973533 170.713012,91.4483416 C170.713012,89.6517035 172.05426,88.3920537 174.251218,88.3920537 C175.649177,88.3920537 176.662202,88.7318125 177.532284,89.5665712 L176.276879,90.79733 C175.634805,90.189077 174.864549,90.10433 174.193731,90.10433 C173.138367,90.10433 172.624474,90.684077 172.624474,91.3774623 C172.624474,91.6320887 172.710317,91.9013533 172.924342,92.0989681 C173.124383,92.2831004 173.452218,92.4387268 173.865896,92.4953533 L175.06459,92.6648475 C175.991383,92.7923533 176.576359,93.0469798 177.004408,93.443365 C177.546656,93.9526179 177.789036,94.6883767 177.789036,95.5793767 C177.789036,97.5320265 176.148698,98.6356646 174.022821,98.6356646" id="Fill-54" fill="#FFFFFF" mask="url(#mask-2)"></path>
                        <polygon id="Fill-55" fill="#FFFFFF" mask="url(#mask-2)" points="181.085873 98.5506479 181.085873 88.4773016 187.776575 88.4773016 187.776575 90.2315661 183.068418 90.2315661 183.068418 92.5940837 187.07779 92.5940837 187.07779 94.3487335 183.068418 94.3487335 183.068418 96.7959981 187.776575 96.7959981 187.776575 98.5506479"></polygon>
                        <path d="M91.4317025,51.1375062 C79.1083802,45.9163156 73.3860331,31.776265 78.6511983,19.5549654 L89.9983967,24.3624362 C91.2844876,21.3662416 93.7820909,19.0048798 96.8813719,17.8835218 L90.3103058,-0.0208400778 C74.1924132,5.79704708 65.8819587,23.4714362 71.7484132,39.4562767 C77.6148678,55.4411171 95.4368017,63.6827708 111.555083,57.8648837 C114.646207,56.7489187 117.447174,55.1938097 119.91914,53.3012533 L115.818488,48.035763 C109.085058,53.1953195 99.8124628,54.6884089 91.4317025,51.1375062" id="Fill-56" fill-opacity="0.4" fill="#34A8FC" mask="url(#mask-2)"></path>
                        <path d="M123.278048,38.4625016 C125.910436,32.3518518 125.796238,25.7616105 123.483527,20.0461903 L112.028734,24.6051981 C112.574866,25.9603809 112.87823,27.4376767 112.87823,28.986237 C112.87823,32.7863732 111.06737,36.1647 108.256693,38.3261358 L115.818255,48.0354549 C118.985899,45.6082214 121.593817,42.3724237 123.278048,38.4625016" id="Fill-57" fill-opacity="0.4" fill="#34A8FC" mask="url(#mask-2)"></path>
                        <path d="M100.959126,40.8012514 C94.3795142,40.8012514 89.0452084,35.5114926 89.0452084,28.9859673 C89.0452084,27.3453409 89.3831423,25.7829128 89.992977,24.3626288 L78.6457787,19.555158 C73.3806134,31.7764576 79.1029605,45.9165082 91.4262828,51.1376988 C99.8070431,54.6882163 109.079638,53.1955121 115.812679,48.0355704 L108.251117,38.3262514 C106.235556,39.8763525 103.707266,40.8012514 100.959126,40.8012514" id="Fill-58" fill-opacity="0.75" fill="#48B7FC" mask="url(#mask-2)"></path>
                        <path d="M100.991891,28.9979089 L112.028734,24.6053136 C110.27342,20.2496988 105.982825,17.1710685 100.964701,17.1710685 C99.5302298,17.1710685 98.1551884,17.4226132 96.8815273,17.8837144 L100.93285,28.9220218 L100.991891,28.9979089 Z" id="Fill-59" fill-opacity="0.4" fill="#34A8FC" mask="url(#mask-2)"></path>
                        <path d="M89.9982802,24.3626288 L100.964429,29.0086949 L100.992007,28.9979089 L100.932578,28.9220218 L96.8816438,17.8837144 C93.7819744,19.0050724 91.2843711,21.3664342 89.9982802,24.3626288" id="Fill-60" fill-opacity="0.75" fill="#48B7FC" mask="url(#mask-2)"></path>
                        <path d="M108.256731,38.3262514 C111.067409,36.1648156 112.878269,32.7861035 112.878269,28.9863525 C112.878269,27.4377922 112.574905,25.9604965 112.028773,24.6053136 L100.99193,28.9979089 L108.256731,38.3262514 Z" id="Fill-61" fill-opacity="0.75" fill="#48B7FC" mask="url(#mask-2)"></path>
                        <path d="M100.964545,29.008772 L89.9983967,24.3627058 C89.388562,25.7826047 89.0506281,27.3454179 89.0506281,28.9860444 C89.0506281,35.5115696 94.3849339,40.8013284 100.964545,40.8013284 C103.712686,40.8013284 106.240975,39.8760444 108.256537,38.3263284 L100.991736,28.997986 L100.964545,29.008772 Z" id="Fill-62" fill="#48B7FC" mask="url(#mask-2)"></path>
                    </g>
                </g>
            </g>
        </g>
    </g>
</svg>