<?xml version="1.0" encoding="UTF-8" standalone="no"?>
<svg width="16px" height="16px" viewBox="0 0 12 13" version="1.1" xmlns="http://www.w3.org/2000/svg" xmlns:xlink="http://www.w3.org/1999/xlink">
    <!-- Generator: Sketch 48.2 (47327) - http://www.bohemiancoding.com/sketch -->
    <title>paperclip</title>
    <desc>Created with Sketch.</desc>
    <defs></defs>
    <g id="Symbols" stroke="none" stroke-width="1" fill="none" fill-rule="evenodd">
        <path d="M8.5,0.25 C9.25000375,0.25 9.89062234,0.515622344 10.421875,1.046875 C10.9531277,1.57812766 11.21875,2.21874625 11.21875,2.96875 C11.21875,3.71875375 10.9583359,4.35416406 10.4375,4.875 L5.75,9.5625 C5.43749844,9.87500156 5.05729391,10.03125 4.609375,10.03125 C4.16145609,10.03125 3.78125156,9.87500156 3.46875,9.5625 C3.15624844,9.24999844 3,8.86979391 3,8.421875 C3,7.97395609 3.15624844,7.60416813 3.46875,7.3125 L7.75,3 L8.46875,3.6875 L4.1875,8 C4.06249937,8.12500063 4,8.2708325 4,8.4375 C4,8.6041675 4.05729109,8.74479109 4.171875,8.859375 C4.28645891,8.97395891 4.4270825,9.03125 4.59375,9.03125 C4.7604175,9.03125 4.90624937,8.97916719 5.03125,8.875 L9.71875,4.1875 C10.052085,3.83333156 10.21875,3.42187734 10.21875,2.953125 C10.21875,2.48437266 10.052085,2.083335 9.71875,1.75 C9.385415,1.416665 8.98437734,1.25 8.515625,1.25 C8.04687266,1.25 7.645835,1.416665 7.3125,1.75 L2.625,6.4375 C2.06249719,6.97916937 1.78125,7.64062109 1.78125,8.421875 C1.78125,9.20312891 2.05728891,9.86978891 2.609375,10.421875 C3.16146109,10.9739611 3.82291281,11.25 4.59375,11.25 C5.36458719,11.25 6.03124719,10.9791694 6.59375,10.4375 L9.71875,7.3125 L10.4375,8 L7.3125,11.125 C6.56249625,11.8750037 5.66146359,12.25 4.609375,12.25 C3.55728641,12.25 2.65625375,11.8750037 1.90625,11.125 C1.15624625,10.3749963 0.78125,9.47396359 0.78125,8.421875 C0.78125,7.36978641 1.15624625,6.47917031 1.90625,5.75 L6.59375,1.0625 C7.11458594,0.520830625 7.74999625,0.25 8.5,0.25 Z" id="paperclip" fill="#020B4F"></path>
    </g>
</svg>