<!-- Generated by IcoMoon.io -->
<svg version="1.1" xmlns="http://www.w3.org/2000/svg" width="32" height="32" viewBox="0 0 32 32">
<title>paperclip-icon</title>
<path fill="#020b4f" d="M22.154 0.615c1.846 0 3.423 0.654 4.731 1.962s1.962 2.885 1.962 4.731c0 1.846-0.641 3.41-1.923 4.692l-11.538 11.538c-0.769 0.769-1.705 1.154-2.808 1.154s-2.038-0.385-2.808-1.154c-0.769-0.769-1.154-1.705-1.154-2.808s0.385-2.013 1.154-2.731l10.538-10.615 1.769 1.692-10.538 10.615c-0.308 0.308-0.462 0.667-0.462 1.077s0.141 0.756 0.423 1.038c0.282 0.282 0.628 0.423 1.038 0.423s0.769-0.128 1.077-0.385l11.538-11.538c0.821-0.872 1.231-1.885 1.231-3.038s-0.41-2.141-1.231-2.962c-0.821-0.821-1.808-1.231-2.962-1.231s-2.141 0.41-2.962 1.231l-11.538 11.538c-1.385 1.333-2.077 2.962-2.077 4.885s0.679 3.564 2.038 4.923c1.359 1.359 2.987 2.038 4.885 2.038s3.538-0.667 4.923-2l7.692-7.692 1.769 1.692-7.692 7.692c-1.846 1.846-4.064 2.769-6.654 2.769s-4.808-0.923-6.654-2.769c-1.846-1.846-2.769-4.064-2.769-6.654s0.923-4.782 2.769-6.577l11.538-11.538c1.282-1.333 2.846-2 4.692-2z"></path>
</svg>
