<?xml version="1.0" encoding="UTF-8" standalone="no"?>
<svg width="400px" height="39px" viewBox="0 0 400 39" version="1.1" xmlns="http://www.w3.org/2000/svg" xmlns:xlink="http://www.w3.org/1999/xlink">
    <!-- Generator: Sketch 48.2 (47327) - http://www.bohemiancoding.com/sketch -->
    <title>sdg_national_reporting_initiative_logo</title>
    <desc>Created with Sketch.</desc>
    <defs></defs>
    <g id="navigation" stroke="none" stroke-width="1" fill="none" fill-rule="evenodd" transform="translate(-39.000000, -40.000000)">
        <g id="sdg_national_reporting_initiative_logo">
            <g transform="translate(39.000000, 40.000000)">
                <path d="M6.72542599,38.2070584 C4.87885489,38.2070584 3.4718595,37.6347378 2.5043976,36.4900795 C1.53693571,35.3454212 0.995783631,33.7793036 0.880925141,31.7916799 L3.61100944,31.0463247 C3.80538535,34.2052267 4.84351382,35.7846541 6.72542599,35.7846541 C7.51176489,35.7846541 8.11034534,35.5650427 8.52118533,35.1258133 C8.93202531,34.686584 9.13744222,34.0410596 9.13744222,33.1892209 C9.13744222,32.7189349 9.08222262,32.2885853 8.97178176,31.8981592 C8.86134091,31.5077331 8.68022062,31.1350593 8.42841547,30.7801264 C8.17661032,30.4251936 7.93806165,30.1301602 7.71276231,29.8950172 C7.48746296,29.6598742 7.16718928,29.3470943 6.75193167,28.9566683 L3.06764315,25.6691195 C2.3254806,24.9947472 1.78432852,24.2826739 1.44417069,23.5328784 C1.10401285,22.7830828 0.933936487,21.8669262 0.933936487,20.7843812 C0.933936487,19.1871835 1.39557234,17.942719 2.31885789,17.0509503 C3.24214344,16.1591816 4.5033591,15.7044308 6.10254268,15.6866842 C7.8607611,15.6600642 9.17719636,16.114815 10.0518879,17.0509503 C10.9265795,17.9870856 11.4522701,19.4356334 11.6289755,21.3966372 L9.04467236,22.1153725 C9.00933129,21.6362132 8.96073804,21.2103003 8.89889116,20.8376208 C8.83704428,20.4649414 8.73544022,20.0900492 8.59407593,19.7129331 C8.45271163,19.335817 8.28042648,19.029692 8.07721531,18.794549 C7.87400413,18.5594061 7.60453249,18.3730691 7.26879229,18.2355327 C6.93305209,18.0979962 6.54430611,18.0425388 6.10254268,18.0691587 C4.48568856,18.1845119 3.67727362,18.9919719 3.67727362,20.4915631 C3.67727362,21.1393154 3.78771282,21.6805799 4.00859453,22.1153725 C4.22947624,22.5501652 4.60055195,23.0071344 5.12183279,23.4862937 L8.83262698,26.7738424 C9.79567124,27.6434278 10.5621193,28.5751124 11.1319941,29.5689243 C11.7018689,30.5627362 11.986802,31.6896309 11.986802,32.9496424 C11.986802,34.5645867 11.5008696,35.8445439 10.52899,36.7895525 C9.55711051,37.7345612 8.28926851,38.2070584 6.72542599,38.2070584 Z M15.3035452,37.9674799 L15.3035452,15.8996428 L20.0745663,15.8996428 C22.4512535,15.8996428 24.1277205,16.4409072 25.1040177,17.5234523 C26.0803149,18.6059973 26.5684561,20.3096493 26.5684561,22.6344592 L26.5684561,30.7535066 C26.5684561,33.1759231 26.0847324,34.9838349 25.1172705,36.1772965 C24.1498086,37.3707581 22.5440227,37.9674799 20.2998645,37.9674799 L15.3035452,37.9674799 Z M18.3649504,35.7580342 L20.0878191,35.7580342 C20.5560883,35.7580342 20.969131,35.71145 21.3269593,35.6182801 C21.6847877,35.5251103 21.9829735,35.4141954 22.2215258,35.2855323 C22.460078,35.1568691 22.6610774,34.9505675 22.8245298,34.6666213 C22.9879823,34.382675 23.1116742,34.120916 23.1956093,33.8813364 C23.2795443,33.6417567 23.343599,33.2868292 23.3877754,32.8165433 C23.4319517,32.3462573 23.4584571,31.9447456 23.4672924,31.6119961 C23.4761277,31.2792466 23.4805452,30.7978762 23.4805452,30.1678704 L23.4805452,22.9938269 C23.4805452,22.4614276 23.4717101,22.0133317 23.4540396,21.6495256 C23.436369,21.2857194 23.4010285,20.9219188 23.3480169,20.5581126 C23.2950053,20.1943065 23.215489,19.8970547 23.1094658,19.6663484 C23.0034426,19.4356421 22.866498,19.2160307 22.6986279,19.0075077 C22.5307578,18.7989846 22.3231321,18.6392673 22.0757446,18.5283508 C21.8283571,18.4174343 21.5367976,18.3309207 21.2010574,18.2688074 C20.8653172,18.2066942 20.4721536,18.175638 20.0215549,18.175638 L18.3649504,18.175638 L18.3649504,35.7580342 Z M35.7429529,38.2336782 C33.7461823,38.2336782 32.3060551,37.6014636 31.4225283,36.3370155 C30.5390014,35.0725673 30.0972446,33.2025431 30.0972446,30.7268868 L30.0972446,23.3398846 C30.0972446,22.3283261 30.1524642,21.4410074 30.2629051,20.6779018 C30.373346,19.9147963 30.5633014,19.2093779 30.8327771,18.5616256 C31.1022527,17.9138732 31.457867,17.3859185 31.8996304,16.9777458 C32.3413938,16.5695731 32.9024249,16.2523566 33.5827406,16.026087 C34.2630563,15.7998173 35.0626361,15.6866842 35.981504,15.6866842 C38.0136157,15.6866842 39.4758307,16.2057656 40.3681929,17.2439441 C41.260555,18.2821226 41.7067293,19.914789 41.7067293,22.1419924 L41.7067293,22.9538971 L38.8308638,22.9538971 L38.8308638,22.2617816 C38.8308638,21.6406492 38.8131936,21.1282226 38.7778525,20.7244865 C38.7425114,20.3207505 38.6696215,19.9369851 38.5591807,19.573179 C38.4487398,19.2093729 38.2897074,18.9276492 38.0820786,18.7279995 C37.8744498,18.5283498 37.6027693,18.3708507 37.2670291,18.2554975 C36.9312889,18.1401444 36.5160375,18.0824687 36.0212625,18.0824687 C35.641346,18.0824687 35.3056108,18.1246163 35.0140469,18.2089128 C34.7224831,18.2932094 34.4750993,18.4041242 34.2718881,18.5416607 C34.0686769,18.6791971 33.8986006,18.8699707 33.7616539,19.113987 C33.6247072,19.3580033 33.5164768,19.5975793 33.4369594,19.8327223 C33.357442,20.0678653 33.295596,20.3695537 33.2514197,20.7377965 C33.2072434,21.1060393 33.180738,21.4410021 33.1719027,21.742695 C33.1630674,22.0443878 33.1586498,22.4214983 33.1586498,22.8740376 L33.1586498,31.0463247 C33.1586498,32.7411289 33.361858,33.9567555 33.7682803,34.6932411 C34.1747027,35.4297267 34.9521946,35.797964 36.1007795,35.797964 C37.2493644,35.797964 38.0356915,35.3986705 38.4597844,34.6000717 C38.8838773,33.8014729 39.0959206,32.5192974 39.0959206,30.7535066 L39.0959206,29.2095566 L36.3128249,29.2095566 L36.3128249,27.0267307 L41.8790162,27.0267307 L41.8790162,37.9674799 L39.9308493,37.9674799 L39.6392868,35.4252864 C38.9766417,37.297557 37.6778767,38.2336782 35.7429529,38.2336782 Z M53.0449725,37.9674799 L53.0449725,15.8996428 L55.1256678,15.8996428 L61.3677538,30.5538579 L61.3677538,15.8996428 L63.9255512,15.8996428 L63.9255512,37.9674799 L61.9641314,37.9674799 L55.6292756,22.8873475 L55.6292756,37.9674799 L53.0449725,37.9674799 Z M71.403685,30.2078002 L75.0747207,30.2078002 L73.2325764,20.2386747 L71.403685,30.2078002 Z M67.0567546,37.9674799 L71.7482587,15.8996428 L74.7036412,15.8996428 L79.3951453,37.9674799 L76.4795213,37.9674799 L75.4723057,32.4039359 L71.0060999,32.4039359 L69.9591258,37.9674799 L67.0567546,37.9674799 Z M83.9046437,37.9674799 L83.9046437,18.175638 L79.8890343,18.175638 L79.8890343,15.8996428 L90.8358772,15.8996428 L90.8358772,18.175638 L86.9660489,18.175638 L86.9660489,37.9674799 L83.9046437,37.9674799 Z M93.5694955,37.9674799 L93.5694955,15.8996428 L96.5778894,15.8996428 L96.5778894,37.9674799 L93.5694955,37.9674799 Z M106.640326,38.2070584 C105.544753,38.2070584 104.60602,38.0429044 103.824099,37.7145916 C103.042177,37.3862787 102.421509,36.90269 101.962075,36.2638109 C101.502641,35.6249319 101.166906,34.8795842 100.954859,34.0277454 C100.742813,33.1759067 100.636791,32.1821097 100.636791,31.0463247 L100.636791,22.6876988 C100.636791,20.3895089 101.102845,18.6481459 102.034966,17.4635577 C102.967086,16.2789694 104.502191,15.6866842 106.640326,15.6866842 C108.769626,15.6866842 110.302522,16.283406 111.23906,17.4768676 C112.175599,18.6703291 112.643861,20.4072555 112.643861,22.6876988 L112.643861,31.0596346 C112.643861,33.3578246 112.17339,35.1235888 111.232434,36.3569803 C110.291478,37.5903719 108.760791,38.2070584 106.640326,38.2070584 Z M106.640326,35.797964 C107.241124,35.797964 107.738101,35.7047955 108.13127,35.5184558 C108.52444,35.332116 108.822626,35.0481741 109.025837,34.6666213 C109.229048,34.2850685 109.368201,33.8658104 109.443301,33.4088344 C109.518401,32.9518584 109.55595,32.3861928 109.55595,31.7118204 L109.55595,22.048823 C109.55595,21.383324 109.518401,20.8287498 109.443301,20.3850837 C109.368201,19.9414177 109.229048,19.5332511 109.025837,19.1605717 C108.822626,18.7878922 108.52444,18.5150417 108.13127,18.342012 C107.738101,18.1689822 107.241124,18.0824687 106.640326,18.0824687 C106.039528,18.0824687 105.542552,18.1689822 105.149382,18.342012 C104.756213,18.5150417 104.458027,18.7878922 104.254816,19.1605717 C104.051605,19.5332511 103.912451,19.9414177 103.837351,20.3850837 C103.762252,20.8287498 103.724702,21.383324 103.724702,22.048823 L103.724702,31.7118204 C103.724702,32.3861928 103.762252,32.9518584 103.837351,33.4088344 C103.912451,33.8658104 104.051605,34.2850685 104.254816,34.6666213 C104.458027,35.0481741 104.756213,35.332116 105.149382,35.5184558 C105.542552,35.7047955 106.039528,35.797964 106.640326,35.797964 Z M116.583488,37.9674799 L116.583488,15.8996428 L118.664183,15.8996428 L124.906269,30.5538579 L124.906269,15.8996428 L127.464066,15.8996428 L127.464066,37.9674799 L125.502646,37.9674799 L119.167791,22.8873475 L119.167791,37.9674799 L116.583488,37.9674799 Z M134.9422,30.2078002 L138.613236,30.2078002 L136.771091,20.2386747 L134.9422,30.2078002 Z M130.59527,37.9674799 L135.286774,15.8996428 L138.242156,15.8996428 L142.93366,37.9674799 L140.018036,37.9674799 L139.010821,32.4039359 L134.544615,32.4039359 L133.497641,37.9674799 L130.59527,37.9674799 Z M146.064864,37.9674799 L146.064864,15.8996428 L149.126269,15.8996428 L149.126269,35.7580342 L154.732219,35.7580342 L154.732219,37.9674799 L146.064864,37.9674799 Z M167.912606,25.4029213 L169.065603,25.4029213 C170.399729,25.4029213 171.351714,25.1389439 171.921589,24.6109814 C172.491464,24.0830188 172.776397,23.1269329 172.776397,21.742695 C172.776397,20.4028236 172.531222,19.4622658 172.040865,18.9209932 C171.550507,18.3797207 170.625027,18.1090885 169.264396,18.1090885 L167.912606,18.1090885 L167.912606,25.4029213 Z M164.851201,37.9674799 L164.851201,15.8996428 L169.264396,15.8996428 C171.490883,15.8996428 173.123175,16.3566119 174.161319,17.2705639 C175.199463,18.1845159 175.718527,19.6752113 175.718527,21.742695 C175.718527,24.5821574 174.812925,26.2991192 173.001695,26.8936316 L176.142618,37.9674799 L173.173982,37.9674799 L170.284864,27.612367 L167.912606,27.612367 L167.912606,37.9674799 L164.851201,37.9674799 Z M179.843693,37.9674799 L179.843693,15.8996428 L188.352014,15.8996428 L188.352014,18.175638 L182.905098,18.175638 L182.905098,25.4694708 L187.331546,25.4694708 L187.331546,27.6656066 L182.905098,27.6656066 L182.905098,35.7580342 L188.418278,35.7580342 L188.418278,37.9674799 L179.843693,37.9674799 Z M194.862691,25.4827807 L196.254239,25.4827807 C197.597199,25.4827807 198.520471,25.2432047 199.024081,24.7640454 C199.527692,24.2848861 199.779493,23.3665112 199.779493,22.0088932 C199.779493,21.4498741 199.76624,20.9906866 199.739735,20.6313172 C199.713229,20.2719477 199.653592,19.9325483 199.560821,19.6131087 C199.468051,19.2936692 199.346568,19.0474383 199.196368,18.8744085 C199.046169,18.7013788 198.836334,18.5527529 198.566859,18.4285264 C198.297383,18.3042999 197.983735,18.2200047 197.625907,18.175638 C197.268079,18.1312714 196.824113,18.1090885 196.293997,18.1090885 L194.862691,18.1090885 L194.862691,25.4827807 Z M191.801286,37.9674799 L191.801286,15.8996428 L197.248201,15.8996428 C199.156619,15.8996428 200.539318,16.4165059 201.396339,17.4502477 C202.25336,18.4839896 202.681864,19.9990863 202.681864,21.9955833 C202.681864,23.787994 202.220228,25.185521 201.296943,26.1882062 C200.373657,27.1908914 199.028508,27.6922264 197.261454,27.6922264 L194.862691,27.6922264 L194.862691,37.9674799 L191.801286,37.9674799 Z M211.326248,38.2070584 C210.230674,38.2070584 209.291941,38.0429044 208.51002,37.7145916 C207.728099,37.3862787 207.10743,36.90269 206.647996,36.2638109 C206.188562,35.6249319 205.852827,34.8795842 205.640781,34.0277454 C205.428734,33.1759067 205.322713,32.1821097 205.322713,31.0463247 L205.322713,22.6876988 C205.322713,20.3895089 205.788766,18.6481459 206.720887,17.4635577 C207.653008,16.2789694 209.188113,15.6866842 211.326248,15.6866842 C213.455547,15.6866842 214.988443,16.283406 215.924982,17.4768676 C216.86152,18.6703291 217.329782,20.4072555 217.329782,22.6876988 L217.329782,31.0596346 C217.329782,33.3578246 216.859311,35.1235888 215.918355,36.3569803 C214.977399,37.5903719 213.446712,38.2070584 211.326248,38.2070584 Z M211.326248,35.797964 C211.927046,35.797964 212.424022,35.7047955 212.817192,35.5184558 C213.210361,35.332116 213.508547,35.0481741 213.711758,34.6666213 C213.914969,34.2850685 214.054123,33.8658104 214.129222,33.4088344 C214.204322,32.9518584 214.241872,32.3861928 214.241872,31.7118204 L214.241872,22.048823 C214.241872,21.383324 214.204322,20.8287498 214.129222,20.3850837 C214.054123,19.9414177 213.914969,19.5332511 213.711758,19.1605717 C213.508547,18.7878922 213.210361,18.5150417 212.817192,18.342012 C212.424022,18.1689822 211.927046,18.0824687 211.326248,18.0824687 C210.725449,18.0824687 210.228473,18.1689822 209.835303,18.342012 C209.442134,18.5150417 209.143948,18.7878922 208.940737,19.1605717 C208.737526,19.5332511 208.598372,19.9414177 208.523273,20.3850837 C208.448173,20.8287498 208.410624,21.383324 208.410624,22.048823 L208.410624,31.7118204 C208.410624,32.3861928 208.448173,32.9518584 208.523273,33.4088344 C208.598372,33.8658104 208.737526,34.2850685 208.940737,34.6666213 C209.143948,35.0481741 209.442134,35.332116 209.835303,35.5184558 C210.228473,35.7047955 210.725449,35.797964 211.326248,35.797964 Z M224.330814,25.4029213 L225.483811,25.4029213 C226.817936,25.4029213 227.769922,25.1389439 228.339797,24.6109814 C228.909672,24.0830188 229.194605,23.1269329 229.194605,21.742695 C229.194605,20.4028236 228.94943,19.4622658 228.459073,18.9209932 C227.968715,18.3797207 227.043235,18.1090885 225.682603,18.1090885 L224.330814,18.1090885 L224.330814,25.4029213 Z M221.269409,37.9674799 L221.269409,15.8996428 L225.682603,15.8996428 C227.909091,15.8996428 229.541382,16.3566119 230.579526,17.2705639 C231.617671,18.1845159 232.136735,19.6752113 232.136735,21.742695 C232.136735,24.5821574 231.231133,26.2991192 229.419903,26.8936316 L232.560826,37.9674799 L229.59219,37.9674799 L226.703072,27.612367 L224.330814,27.612367 L224.330814,37.9674799 L221.269409,37.9674799 Z M238.514883,37.9674799 L238.514883,18.175638 L234.499274,18.175638 L234.499274,15.8996428 L245.446117,15.8996428 L245.446117,18.175638 L241.576288,18.175638 L241.576288,37.9674799 L238.514883,37.9674799 Z M248.179735,37.9674799 L248.179735,15.8996428 L251.188129,15.8996428 L251.188129,37.9674799 L248.179735,37.9674799 Z M255.657869,37.9674799 L255.657869,15.8996428 L257.738564,15.8996428 L263.98065,30.5538579 L263.98065,15.8996428 L266.538447,15.8996428 L266.538447,37.9674799 L264.577028,37.9674799 L258.242172,22.8873475 L258.242172,37.9674799 L255.657869,37.9674799 Z M276.123782,38.2336782 C274.127011,38.2336782 272.686884,37.6014636 271.803357,36.3370155 C270.919831,35.0725673 270.478074,33.2025431 270.478074,30.7268868 L270.478074,23.3398846 C270.478074,22.3283261 270.533293,21.4410074 270.643734,20.6779018 C270.754175,19.9147963 270.944131,19.2093779 271.213606,18.5616256 C271.483082,17.9138732 271.838696,17.3859185 272.28046,16.9777458 C272.722223,16.5695731 273.283254,16.2523566 273.96357,16.026087 C274.643885,15.7998173 275.443465,15.6866842 276.362333,15.6866842 C278.394445,15.6866842 279.85666,16.2057656 280.749022,17.2439441 C281.641384,18.2821226 282.087558,19.914789 282.087558,22.1419924 L282.087558,22.9538971 L279.211693,22.9538971 L279.211693,22.2617816 C279.211693,21.6406492 279.194023,21.1282226 279.158682,20.7244865 C279.123341,20.3207505 279.050451,19.9369851 278.94001,19.573179 C278.829569,19.2093729 278.670537,18.9276492 278.462908,18.7279995 C278.255279,18.5283498 277.983598,18.3708507 277.647858,18.2554975 C277.312118,18.1401444 276.896867,18.0824687 276.402092,18.0824687 C276.022175,18.0824687 275.68644,18.1246163 275.394876,18.2089128 C275.103312,18.2932094 274.855928,18.4041242 274.652717,18.5416607 C274.449506,18.6791971 274.27943,18.8699707 274.142483,19.113987 C274.005536,19.3580033 273.897306,19.5975793 273.817789,19.8327223 C273.738271,20.0678653 273.676425,20.3695537 273.632249,20.7377965 C273.588073,21.1060393 273.561567,21.4410021 273.552732,21.742695 C273.543897,22.0443878 273.539479,22.4214983 273.539479,22.8740376 L273.539479,31.0463247 C273.539479,32.7411289 273.742687,33.9567555 274.149109,34.6932411 C274.555532,35.4297267 275.333024,35.797964 276.481609,35.797964 C277.630194,35.797964 278.416521,35.3986705 278.840614,34.6000717 C279.264706,33.8014729 279.47675,32.5192974 279.47675,30.7535066 L279.47675,29.2095566 L276.693654,29.2095566 L276.693654,27.0267307 L282.259845,27.0267307 L282.259845,37.9674799 L280.311678,37.9674799 L280.020116,35.4252864 C279.357471,37.297557 278.058706,38.2336782 276.123782,38.2336782 Z M293.571583,37.9674799 L293.571583,15.8996428 L296.579977,15.8996428 L296.579977,37.9674799 L293.571583,37.9674799 Z M301.049717,37.9674799 L301.049717,15.8996428 L303.130412,15.8996428 L309.372498,30.5538579 L309.372498,15.8996428 L311.930295,15.8996428 L311.930295,37.9674799 L309.968876,37.9674799 L303.63402,22.8873475 L303.63402,37.9674799 L301.049717,37.9674799 Z M316.426541,37.9674799 L316.426541,15.8996428 L319.434935,15.8996428 L319.434935,37.9674799 L316.426541,37.9674799 Z M326.157657,37.9674799 L326.157657,18.175638 L322.142047,18.175638 L322.142047,15.8996428 L333.08889,15.8996428 L333.08889,18.175638 L329.219062,18.175638 L329.219062,37.9674799 L326.157657,37.9674799 Z M335.822509,37.9674799 L335.822509,15.8996428 L338.830902,15.8996428 L338.830902,37.9674799 L335.822509,37.9674799 Z M346.428312,30.2078002 L350.099347,30.2078002 L348.257203,20.2386747 L346.428312,30.2078002 Z M342.081381,37.9674799 L346.772886,15.8996428 L349.728268,15.8996428 L354.419772,37.9674799 L351.504148,37.9674799 L350.496933,32.4039359 L346.030727,32.4039359 L344.983753,37.9674799 L342.081381,37.9674799 Z M358.929271,37.9674799 L358.929271,18.175638 L354.913661,18.175638 L354.913661,15.8996428 L365.860504,15.8996428 L365.860504,18.175638 L361.990676,18.175638 L361.990676,37.9674799 L358.929271,37.9674799 Z M368.594122,37.9674799 L368.594122,15.8996428 L371.602516,15.8996428 L371.602516,37.9674799 L368.594122,37.9674799 Z M379.889073,37.9674799 L374.985523,15.8996428 L377.848136,15.8996428 L381.320379,32.1510476 L384.633588,15.8996428 L387.429937,15.8996428 L382.566146,37.9674799 L379.889073,37.9674799 Z M390.693669,37.9674799 L390.693669,15.8996428 L399.20199,15.8996428 L399.20199,18.175638 L393.755074,18.175638 L393.755074,25.4694708 L398.181521,25.4694708 L398.181521,27.6656066 L393.755074,27.6656066 L393.755074,35.7580342 L399.268254,35.7580342 L399.268254,37.9674799 L390.693669,37.9674799 Z" id="SDG-National-Reporti" fill="#020B4F"></path>
                <g id="color-bar" transform="translate(0.630992, 0.000000)">
                    <rect id="Rectangle" fill="#E5243B" x="0" y="0" width="39.8192092" height="2.92057538"></rect>
                    <rect id="Rectangle" fill="#DCA63A" x="39.8192092" y="0" width="39.8192092" height="2.92057538"></rect>
                    <rect id="Rectangle" fill="#1A486A" x="79.6384184" y="0" width="39.8192092" height="2.92057538"></rect>
                    <rect id="Rectangle" fill="#FD6824" x="119.457628" y="0" width="39.8192092" height="2.92057538"></rect>
                    <rect id="Rectangle" fill="#4C9E38" x="159.276837" y="0" width="39.8192092" height="2.92057538"></rect>
                    <rect id="Rectangle" fill="#FBC30A" x="199.096046" y="0" width="39.8192092" height="2.92057538"></rect>
                    <rect id="Rectangle" fill="#DC1367" x="238.915255" y="0" width="39.8192092" height="2.92057538"></rect>
                    <rect id="Rectangle" fill="#26BDE2" x="278.734465" y="0" width="39.8192092" height="2.92057538"></rect>
                    <rect id="Rectangle" fill="#A21A42" x="318.553674" y="0" width="39.8192092" height="2.92057538"></rect>
                    <rect id="Rectangle" fill="#56C02A" x="358.372883" y="0" width="39.8192092" height="2.92057538"></rect>
                </g>
            </g>
        </g>
    </g>
</svg>