<!-- Generated by IcoMoon.io -->
<svg version="1.1" xmlns="http://www.w3.org/2000/svg" width="32" height="32" viewBox="0 0 32 32">
<title>search-resources-mobile-icon</title>
<path fill="#34a8fc" d="M19.6 0.893c3.3 0 6.125 1.175 8.475 3.525s3.525 5.175 3.525 8.475c0 3.3-1.175 6.125-3.525 8.475s-5.175 3.525-8.475 3.525c-2.85 0-5.375-0.9-7.575-2.7l-9.525 9.6-1.8-1.8 9.6-9.525c-1.8-2.2-2.7-4.725-2.7-7.575 0-3.3 1.175-6.125 3.525-8.475s5.175-3.525 8.475-3.525zM19.6 3.293c-2.65 0-4.912 0.938-6.787 2.813s-2.813 4.138-2.813 6.788c0 2.65 0.938 4.913 2.813 6.788s4.138 2.813 6.787 2.813c2.65 0 4.913-0.938 6.788-2.813s2.813-4.137 2.813-6.787c0-2.65-0.938-4.912-2.813-6.787s-4.137-2.813-6.788-2.813z"></path>
</svg>
