<?xml version="1.0" encoding="UTF-8" standalone="no"?>
<svg width="20px" height="20px" viewBox="0 0 20 20" version="1.1" xmlns="http://www.w3.org/2000/svg" xmlns:xlink="http://www.w3.org/1999/xlink">
    <!-- Generator: Sketch 48.2 (47327) - http://www.bohemiancoding.com/sketch -->
    <title>search-resources-mobile-icon</title>
    <desc>Created with Sketch.</desc>
    <defs></defs>
    <g id="02_mobile-tab-bar_01" stroke="none" stroke-width="1" fill="none" fill-rule="evenodd" transform="translate(-110.000000, -8.000000)">
        <g id="tab" fill="#34A8FC">
            <path d="M122.25,8.55812454 C124.31251,8.55812454 126.078118,9.2924922 127.546875,10.7612495 C129.015632,12.2300069 129.75,13.9956142 129.75,16.0581245 C129.75,18.1206349 129.015632,19.8862422 127.546875,21.3549995 C126.078118,22.8237569 124.31251,23.5581245 122.25,23.5581245 C120.468741,23.5581245 118.890632,22.9956302 117.515625,21.8706245 L111.5625,27.8706245 L110.4375,26.7456245 L116.4375,20.7924995 C115.312494,19.4174927 114.75,17.8393834 114.75,16.0581245 C114.75,13.9956142 115.484368,12.2300069 116.953125,10.7612495 C118.421882,9.2924922 120.18749,8.55812454 122.25,8.55812454 Z M122.25,10.0581245 C120.593742,10.0581245 119.179693,10.6440562 118.007812,11.815937 C116.835932,12.9878179 116.25,14.4018663 116.25,16.0581245 C116.25,17.7143828 116.835932,19.1284312 118.007812,20.300312 C119.179693,21.4721929 120.593742,22.0581245 122.25,22.0581245 C123.906258,22.0581245 125.320307,21.4721929 126.492188,20.300312 C127.664068,19.1284312 128.25,17.7143828 128.25,16.0581245 C128.25,14.4018663 127.664068,12.9878179 126.492188,11.815937 C125.320307,10.6440562 123.906258,10.0581245 122.25,10.0581245 Z" id="search-resources-mobile-icon"></path>
        </g>
    </g>
</svg>