<?xml version="1.0" encoding="UTF-8" standalone="no"?>
<svg width="1200px" height="46px" viewBox="0 0 1200 46" version="1.1" xmlns="http://www.w3.org/2000/svg" xmlns:xlink="http://www.w3.org/1999/xlink">
    <!-- Generator: Sketch 48.2 (47327) - http://www.bohemiancoding.com/sketch -->
    <title>white wave</title>
    <desc>Created with Sketch.</desc>
    <defs></defs>
    <g id="Symbols" stroke="none" stroke-width="1" fill="none" fill-rule="evenodd">
        <g id="white-wave" fill="#FFFFFF">
            <g transform="translate(-1.000000, 0.000000)">
                <path d="M1,2.97901928 C276.40472,-8.98973072 787.158626,38.0188713 1201,2.97901928 C1201,9.85238143 1201,23.0794271 1201,42.6601562 L1,35.6992187 C1,14.9726563 1,4.06592309 1,2.97901928 Z" id="fadey-bit" opacity="0.5" transform="translate(601.000000, 21.817063) scale(-1, 1) translate(-601.000000, -21.817063) "></path>
                <path d="M3.08007813,13.4200134 C347.058221,27.7872009 899.278702,16.1880952 1203.08008,25.6638681 C1203.98763,33.7792321 1203.98763,39.8424784 1203.08008,43.8536072 L0.319335937,35.9248047 C2.15983073,20.9216105 3.08007813,13.4200134 3.08007813,13.4200134 Z" id="fadey-bit" opacity="0.7" transform="translate(602.040039, 28.636810) scale(-1, 1) translate(-602.040039, -28.636810) "></path>
                <path d="M1,30.6657297 C218.557646,20.9546607 697.073015,31.9257812 977.626934,35.8515625 C1020.43607,36.0612994 1094.89376,36.0612994 1201,35.8515625 L1201,46.7617188 L1,46.7617188 C1,39.4882812 1,34.1229516 1,30.6657297 Z" id="opaque-shape" transform="translate(601.000000, 36.760278) scale(-1, 1) translate(-601.000000, -36.760278) "></path>
            </g>
        </g>
    </g>
</svg>